<svg width="48" height="48" viewBox="0 0 48 48" fill="none" xmlns="http://www.w3.org/2000/svg">
<circle cx="24" cy="24" r="24" fill="url(#paint0_linear_15184_13)"/>
<path d="M21.245 28.265L20.545 22.595L20.72 22.42C25.0367 22.2567 27.195 20.9267 27.195 18.43C27.195 17.4267 26.8333 16.6217 26.11 16.015C25.3867 15.4083 24.4067 15.105 23.17 15.105C21.0933 15.105 19.1917 16.0267 17.465 17.87L14.84 15.07C17.1267 12.48 19.9383 11.185 23.275 11.185C25.7483 11.185 27.7317 11.8383 29.225 13.145C30.7183 14.4283 31.465 16.1667 31.465 18.36C31.465 20.4367 30.8233 22.0467 29.54 23.19C28.2567 24.31 26.5533 25.0567 24.43 25.43L24.08 28.265H21.245ZM20.23 36V31.205H24.92V36H20.23Z" fill="white"/>
<defs>
<linearGradient id="paint0_linear_15184_13" x1="7" y1="12" x2="27" y2="46" gradientUnits="userSpaceOnUse">
<stop stop-color="#6BA758"/>
<stop offset="1" stop-color="#23503D"/>
</linearGradient>
</defs>
</svg>
